<svg viewBox="0 0 600 200" xmlns="http://www.w3.org/2000/svg">
  <style>
    .cloud {
      fill: white;
      filter: drop-shadow(0 0 5px rgba(0, 0, 0, 0.5));
      animation: float 4s linear infinite;
    }
    
    /* Hiệu ứng sóng cho đám mây */
    @keyframes float {
      0% { transform: translateX(0); }
      50% { transform: translateX(15px); }
      100% { transform: translateX(0); }
    }
  </style>
  
  <!-- Đám mây 1 -->
  <g class="cloud" transform="translate(50, 60)">
    <ellipse cx="30" cy="20" rx="30" ry="20" />
    <ellipse cx="60" cy="20" rx="40" ry="25" />
    <ellipse cx="10" cy="30" rx="25" ry="15" />
  </g>
  
  <!-- Đám mây 2 -->
  <g class="cloud" transform="translate(150, 40)">
    <ellipse cx="30" cy="20" rx="25" ry="15" />
    <ellipse cx="60" cy="20" rx="35" ry="20" />
    <ellipse cx="40" cy="30" rx="20" ry="10" />
  </g>

  <!-- Đám mây 3 -->
  <g class="cloud" transform="translate(300, 70)">
    <ellipse cx="30" cy="20" rx="35" ry="20" />
    <ellipse cx="60" cy="20" rx="45" ry="25" />
    <ellipse cx="10" cy="30" rx="25" ry="15" />
  </g>
  
  <!-- Đám mây 4 -->
  <g class="cloud" transform="translate(400, 50)">
    <ellipse cx="30" cy="20" rx="30" ry="20" />
    <ellipse cx="60" cy="20" rx="40" ry="25" />
    <ellipse cx="10" cy="30" rx="25" ry="15" />
  </g>
  
  <!-- Đám mây 5 -->
  <g class="cloud" transform="translate(500, 30)">
    <ellipse cx="30" cy="20" rx="25" ry="15" />
    <ellipse cx="60" cy="20" rx="35" ry="20" />
    <ellipse cx="40" cy="30" rx="20" ry="10" />
  </g>
</svg>
